# xmcd
# 
# Track frame offsets:
#     150
#     14010
#     30175
#     40985
#     57175
#     69950
#     86125
#     99620
#     113930
#     126980
#     140640
#     157615
#     170905
#     188645
#     201720
#     214035
#     228455
#     241232
#     251357
#     264590
#     277015
#     291380
#     303630
#     317400
# 
# Disc length: 4417
# 
# Revision: 3
# Processed by: cddbd v1.5.2PL0 Copyright (c) Steve Scherf et al.
# Submitted via: BonkEnc v1.0
# 
DISCID=65113f18
DTITLE=Chico Rey e Paraná - Dose Dupla
DYEAR=0
DGENRE=Country
TTITLE0=Só Você
TTITLE1=Não Consigo Viver de Recordações
TTITLE2=Sem Palavras
TTITLE3=Gostoso Veneno
TTITLE4=Tudo Acabou
TTITLE5=Quando a Chuva Passar
TTITLE6=Alma Transparente
TTITLE7=Encanto e Magia
TTITLE8=Contraste
TTITLE9=Amor Rebelde
TTITLE10=Ponto de Chegada
TTITLE11=A Mesma Paixão
TTITLE12=Quem Será Seu Outro Amor?
TTITLE13=Trinta Dias de Saudade
TTITLE14=Rotina de Pobre
TTITLE15=Country Clube Sertão
TTITLE16=Agulha
TTITLE17=Amor do 1º ao 5º
TTITLE18=Zé Gatão
TTITLE19=Cinquenta Graus de Amor
TTITLE20=Caros Amantes
TTITLE21=Velho John
TTITLE22=Enfermeira do Amor
TTITLE23=Grande Esperança
EXTD=
EXTT0=
EXTT1=
EXTT2=
EXTT3=
EXTT4=
EXTT5=
EXTT6=
EXTT7=
EXTT8=
EXTT9=
EXTT10=
EXTT11=
EXTT12=
EXTT13=
EXTT14=
EXTT15=
EXTT16=
EXTT17=
EXTT18=
EXTT19=
EXTT20=
EXTT21=
EXTT22=
EXTT23=
PLAYORDER=
